{"title":"Tumko To Aana Hi Tha - Jai Ho (2014) - 1080p Full HD {AryaN_L33T","uid":9501823,"size":52228417,"categoryP":"video","categoryS":"music_videos","magnet":"?xt=urn:btih:9c3ef18fe41f6cedb6c96d7991c0731521c80a08&amp;dn=Tumko+To+Aana+Hi+Tha+-+Jai+Ho+%282014%29+-+1080p+Full+HD+%7BAryaN_L33T&amp;tr=udp%3A%2F%2Ftracker.openbittorrent.com%3A80&amp;tr=udp%3A%2F%2Fopen.demonii.com%3A1337&amp;tr=udp%3A%2F%2Ftracker.coppersurfer.tk%3A6969&amp;tr=udp%3A%2F%2Fexodus.desync.com%3A6969","seeders":1,"leechers":0,"uploader":"SirHates","files":5,"time":1390241343,"description":"Album Name:Jai Ho (2014)\n\nSong Name:Tumko To Aana Hi Tha - Jai Ho (2014) - 1080p Full HD\n\nGenre:Bollywood\n\nFormat:mp4\n\nBit Rate:3366 kb/s\n\nAudio:aac, 44100 Hz, 2 channels, s16, 125 kb/s (und)\n\nVideo:h264, yuv420p, 1920x1080, 3219 kb/s, 25.00 fps(r) (und)\n\nSize:48 mb\n\nYear Of Release:2014\n\n\nMedia Info\n\nGeneral\nComplete name : Tumko To Aana Hi Tha - Jai Ho (2014) - 1080p Full HD.mp4\nFormat : MPEG-4\nFormat profile : Base Media\nCodec ID : isom\nFile size : 48.6 MiB\nDuration : 2mn 1s\nOverall bit rate : 3 351 Kbps\nWriting application : Lavf54.29.104\n\nVideo\nID : 1\nFormat : AVC\nFormat/Info : Advanced Video Codec\nFormat profile : &lt;a class=&quot;__cf_email__&quot; href=&quot;/cdn-cgi/l/email-protection&quot; data-cfemail=&quot;266e4f414e666a120816&quot;&gt;[email&amp;#160;protected]&lt;/a&gt;&lt;script cf-hash='f9e31' type=&quot;text/javascript&quot;&gt;\n/* &lt;![CDATA[ */!function(){try{var t=&quot;currentScript&quot;in document?document.currentScript:function(){for(var t=document.getElementsByTagName(&quot;script&quot;),e=t.length;e--;)if(t[e].getAttribute(&quot;cf-hash&quot;))return t[e]}();if(t&amp;&amp;t.previousSibling){var e,r,n,i,c=t.previousSibling,a=c.getAttribute(&quot;data-cfemail&quot;);if(a){for(e=&quot;&quot;,r=parseInt(a.substr(0,2),16),n=2;a.length-n;n+=2)i=parseInt(a.substr(n,2),16)^r,e+=String.fromCharCode(i);e=document.createTextNode(e),c.parentNode.replaceChild(e,c)}}}catch(u){}}();/* ]]&gt; */&lt;/script&gt;\nFormat settings, CABAC : Yes\nFormat settings, ReFrames : 2 frames\nCodec ID : avc1\nCodec ID/Info : Advanced Video Coding\nDuration : 2mn 1s\nBit rate : 3 219 Kbps\nWidth : 1 920 pixels\nHeight : 1 080 pixels\nDisplay aspect ratio : 16:9\nFrame rate mode : Constant\nFrame rate : 25.000 fps\nColor space : YUV\nChroma subsampling : 4:2:0\nBit depth : 8 bits\nScan type : Progressive\nBits/(Pixel*Frame) : 0.062\nStream size : 46.7 MiB (96%)\n\nAudio\nID : 2\nFormat : AAC\nFormat/Info : Advanced Audio Codec\nFormat profile : LC\nCodec ID : 40\nDuration : 2mn 1s\nBit rate mode : Constant\nBit rate : 126 Kbps\nChannel(s) : 2 channels\nChannel positions : Front: L R\nSampling rate : 44.1 KHz\nCompression mode : Lossy\nDelay relative to video : 40ms\nStream size : 1.82 MiB (4%)\n\n\nVisit us at - www.lfrg.co.vu (currently under construction, but feel free to visit, and make sure you leave feedback for us) \n\n\nIf you download our uploads, please make sure you seed them till atleast 1:1 ratio. We all work very hard to get this stuff. We'll all greatly appreciate some help.\n","torrent":{"xt":"urn:btih:9c3ef18fe41f6cedb6c96d7991c0731521c80a08","amp;dn":"Tumko+To+Aana+Hi+Tha+-+Jai+Ho+%282014%29+-+1080p+Full+HD+%7BAryaN_L33T","amp;tr":["udp%3A%2F%2Ftracker.openbittorrent.com%3A80","udp%3A%2F%2Fopen.demonii.com%3A1337","udp%3A%2F%2Ftracker.coppersurfer.tk%3A6969","udp%3A%2F%2Fexodus.desync.com%3A6969"],"infoHash":"9c3ef18fe41f6cedb6c96d7991c0731521c80a08","infoHashBuffer":{"type":"Buffer","data":[156,62,241,143,228,31,108,237,182,201,109,121,145,192,115,21,33,200,10,8]},"announce":[],"urlList":[]}}